<?xml version="1.0" encoding="UTF-8"?>
<svg width="16px" height="16px" viewBox="0 0 16 16" version="1.1" xmlns="http://www.w3.org/2000/svg" xmlns:xlink="http://www.w3.org/1999/xlink">
    <title>DOC图标</title>
    <g id="供应商管理" stroke="none" stroke-width="1" fill="none" fill-rule="evenodd">
        <g id="供应商管理-供应商列表详情-20条附件" transform="translate(-383.000000, -1051.000000)" fill="#3878DE" fill-rule="nonzero">
            <g id="编组-21备份-9" transform="translate(375.000000, 1045.000000)">
                <g id="DOC图标" transform="translate(8.000000, 6.000000)">
                    <path d="M3,6 L13,6 C13.176811,6 13.3463803,6.07023789 13.4714045,6.19526215 C13.5964288,6.3202864 13.6666667,6.48985568 13.6666667,6.66666667 L13.6666667,12.3333333 C13.6666667,12.7015232 13.3681898,13 13,13 L3,13 L3,14.6666667 C3,14.7550722 3.03511895,14.8398568 3.09763107,14.9023689 C3.1601432,14.9648811 3.24492783,15 3.33333333,15 L14.6666667,15 C14.8507616,15 15,14.8507616 15,14.6666667 L15,4.82533333 L14.8423333,4.66666667 L12.8653333,4.66666667 C12.0192331,4.66666667 11.3333333,3.98076691 11.3333333,3.13466667 L11.3333333,1.13533333 L11.1986667,1 L3.33333333,1 C3.24492783,1 3.1601432,1.03511895 3.09763107,1.09763107 C3.03511895,1.1601432 3,1.24492783 3,1.33333333 L3,6 Z M2,13 L0.666666672,13 C0.298476836,13 0,12.7015232 0,12.3333333 L0,6.66666667 C0,6.48985568 0.0702378941,6.3202864 0.195262147,6.19526215 C0.320286401,6.07023789 0.489855677,6 0.666666672,6 L2,6 L2,1.33333333 C2,0.596953665 2.59695366,0 3.33333333,0 L11.615,0 L16,4.41333333 L16,14.6666667 C16,15.4030463 15.4030463,16 14.6666667,16 L3.33333333,16 C2.59695366,16 2,15.4030463 2,14.6666667 L2,13 L2,13 Z M1.03,7.38266667 L1.03,11.6666667 L2.45733333,11.6666667 C3.09166666,11.6666667 3.56733333,11.4746667 3.89566667,11.0906667 C4.20733334,10.7246667 4.366,10.2026667 4.366,9.52466667 C4.366,8.84066667 4.20733333,8.31866667 3.89566667,7.95866667 C3.56766667,7.57466667 3.09166667,7.38266667 2.45733333,7.38266667 L1.03,7.38266667 Z M1.67,7.98266667 L2.33666667,7.98266667 C2.82333334,7.98266667 3.179,8.10266667 3.40333333,8.34866667 C3.622,8.58866667 3.73133333,8.98466667 3.73133333,9.52466667 C3.73133333,10.0526667 3.622,10.4426667 3.403,10.6946667 C3.179,10.9406667 2.82333333,11.0666667 2.33666667,11.0666667 L1.67,11.0666667 L1.67,7.98266667 L1.67,7.98266667 Z M6.70133333,7.29866667 C6.09966666,7.29866667 5.62933333,7.50866667 5.29033333,7.94066667 C4.962,8.34866667 4.80366667,8.87666667 4.80366667,9.53066667 C4.80366667,10.1786667 4.962,10.7066667 5.29033333,11.1146667 C5.62933333,11.5346667 6.09966666,11.7506667 6.70133333,11.7506667 C7.29733333,11.7506667 7.76766666,11.5406667 8.11233333,11.1206667 C8.44033333,10.7186667 8.60433333,10.1906667 8.60433333,9.53066667 C8.60433333,8.87066667 8.44033333,8.33666667 8.11233333,7.93466667 C7.76766666,7.50866667 7.29733333,7.29866667 6.70133333,7.29866667 L6.70133333,7.29866667 Z M6.70133333,7.91666667 C7.106,7.91666667 7.41766666,8.05466667 7.63633333,8.34266667 C7.84966666,8.63066667 7.959,9.02666667 7.959,9.53066667 C7.959,10.0346667 7.84966667,10.4246667 7.63633333,10.7066667 C7.41766666,10.9886667 7.106,11.1326667 6.70133333,11.1326667 C6.29666666,11.1326667 5.97933333,10.9826667 5.76066667,10.6886667 C5.54733334,10.4006667 5.44333333,10.0166667 5.44333333,9.53066667 C5.44333333,9.03866667 5.54733333,8.65466667 5.76066667,8.36666667 C5.98466667,8.06666667 6.29666667,7.91666667 6.70133333,7.91666667 L6.70133333,7.91666667 Z M10.9013333,7.29866667 C10.278,7.29866667 9.802,7.52066667 9.474,7.97666667 C9.184,8.37266667 9.042,8.89466667 9.042,9.53066667 C9.042,10.1786667 9.17866667,10.6946667 9.45766667,11.0786667 C9.77466667,11.5226667 10.2613333,11.7506667 10.9123333,11.7506667 C11.3333333,11.7506667 11.6943333,11.6186667 11.995,11.3546667 C12.3176667,11.0726667 12.52,10.6826667 12.6076667,10.1786667 L11.9843333,10.1786667 C11.9076667,10.5026667 11.7763333,10.7486667 11.5903333,10.9106667 C11.4153333,11.0546667 11.1856667,11.1326667 10.907,11.1326667 C10.4803333,11.1326667 10.163,10.9826667 9.96066667,10.6946667 C9.77466667,10.4246667 9.68166667,10.0346667 9.68166667,9.53066667 C9.68166667,9.03866667 9.775,8.65466667 9.96633333,8.37866667 C10.174,8.06666667 10.4803333,7.91666667 10.8903333,7.91666667 C11.1636667,7.91666667 11.388,7.97666667 11.563,8.10866667 C11.7436667,8.24066667 11.864,8.44466667 11.9296667,8.72666667 L12.553,8.72666667 C12.493,8.29466667 12.323,7.94666667 12.039,7.69466667 C11.7436667,7.43066667 11.3606667,7.29866667 10.9013333,7.29866667 L10.9013333,7.29866667 Z" id="形状"></path>
                </g>
            </g>
        </g>
    </g>
</svg>