<?xml version="1.0" encoding="UTF-8"?>
<svg width="16px" height="16px" viewBox="0 0 16 16" version="1.1" xmlns="http://www.w3.org/2000/svg" xmlns:xlink="http://www.w3.org/1999/xlink">
    <title>通用文件</title>
    <g id="供应商管理" stroke="none" stroke-width="1" fill="none" fill-rule="evenodd">
        <g id="供应商管理-供应商列表详情-20条附件" transform="translate(-383.000000, -1091.000000)" fill-rule="nonzero">
            <g id="编组-21备份-10" transform="translate(375.000000, 1085.000000)">
                <g id="通用文件" transform="translate(8.000000, 6.000000)">
                    <path d="M11.615,0 L16,4.41333333 L16,14.6666667 C16,15.4030463 15.4030463,16 14.6666667,16 L3.33333333,16 C2.59695366,16 2,15.4030463 2,14.6666667 L2,13 L0.666666672,13 C0.298476836,13 0,12.7015232 0,12.3333333 L0,6.66666667 C0,6.48985568 0.0702378941,6.3202864 0.195262147,6.19526215 C0.320286401,6.07023789 0.489855677,6 0.666666672,6 L2,6 L2,1.33333333 C2,0.596953665 2.59695366,0 3.33333333,0 L11.615,0 Z M11.1986667,1 L3.33333333,1 C3.24492783,1 3.1601432,1.03511895 3.09763107,1.09763107 C3.03511895,1.1601432 3,1.24492783 3,1.33333333 L3,6 L13,6 C13.176811,6 13.3463803,6.07023789 13.4714045,6.19526215 C13.5964288,6.3202864 13.6666667,6.48985568 13.6666667,6.66666667 L13.6666667,12.3333333 C13.6666667,12.7015232 13.3681898,13 13,13 L3,13 L3,14.6666667 C3,14.7550722 3.03511895,14.8398568 3.09763107,14.9023689 C3.1601432,14.9648811 3.24492783,15 3.33333333,15 L14.6666667,15 C14.8507616,15 15,14.8507616 15,14.6666667 L15,4.82533333 L14.8423333,4.66666667 L12.8653333,4.66666667 C12.0192331,4.66666667 11.3333333,3.98076691 11.3333333,3.13466667 L11.3333333,1.13566667 L11.1986667,1 Z" id="形状" fill="#1890FF"></path>
                    <g id="FILE" transform="translate(1.600000, 7.400000)" fill="#FFFFFF">
                        <polygon id="F" points="2.394 0.594 0.672 0.594 0.672 1.806 2.274 1.806 2.274 2.394 0.672 2.394 0.672 4.164 0 4.164 0 0 2.394 0"></polygon>
                        <polygon id="I" points="3.186 4.164 3.186 0 3.858 0 3.858 4.164"></polygon>
                        <polygon id="L" points="5.574 3.564 7.326 3.564 7.326 4.164 4.902 4.164 4.902 0 5.574 0"></polygon>
                        <polygon id="E" points="8.664 3.564 10.512 3.564 10.512 4.164 7.992 4.164 7.992 0 10.386 0 10.386 0.594 8.664 0.594 8.664 1.728 10.266 1.728 10.266 2.292 8.664 2.292"></polygon>
                    </g>
                </g>
            </g>
        </g>
    </g>
</svg>