<?xml version="1.0" encoding="UTF-8"?>
<svg width="16px" height="16px" viewBox="0 0 16 16" version="1.1" xmlns="http://www.w3.org/2000/svg" xmlns:xlink="http://www.w3.org/1999/xlink">
    <title>JPEG图标</title>
    <g id="供应商管理" stroke="none" stroke-width="1" fill="none" fill-rule="evenodd">
        <g id="供应商管理-供应商列表详情-20条附件" transform="translate(-383.000000, -731.000000)" fill-rule="nonzero">
            <g id="编组-21备份" transform="translate(375.000000, 725.000000)">
                <g id="JPEG图标" transform="translate(8.000000, 6.000000)">
                    <path d="M11.615,0 L16,4.41333333 L16,14.6666667 C16,15.4030463 15.4030463,16 14.6666667,16 L3.33333333,16 C2.59695366,16 2,15.4030463 2,14.6666667 L2,13 L0.666666672,13 C0.298476836,13 0,12.7015232 0,12.3333333 L0,6.66666667 C0,6.48985568 0.0702378941,6.3202864 0.195262147,6.19526215 C0.320286401,6.07023789 0.489855677,6 0.666666672,6 L2,6 L2,1.33333333 C2,0.596953665 2.59695366,0 3.33333333,0 L11.615,0 Z M11.1986667,1 L3.33333333,1 C3.24492783,1 3.1601432,1.03511895 3.09763107,1.09763107 C3.03511895,1.1601432 3,1.24492783 3,1.33333333 L3,6 L13,6 C13.176811,6 13.3463803,6.07023789 13.4714045,6.19526215 C13.5964288,6.3202864 13.6666667,6.48985568 13.6666667,6.66666667 L13.6666667,12.3333333 C13.6666667,12.7015232 13.3681898,13 13,13 L3,13 L3,14.6666667 C3,14.7550722 3.03511895,14.8398568 3.09763107,14.9023689 C3.1601432,14.9648811 3.24492783,15 3.33333333,15 L14.6666667,15 C14.8507616,15 15,14.8507616 15,14.6666667 L15,4.82533333 L14.8423333,4.66666667 L12.8653333,4.66666667 C12.0192331,4.66666667 11.3333333,3.98076691 11.3333333,3.13466667 L11.3333333,1.13566667 L11.1986667,1 Z" id="形状" fill="#F67500"></path>
                    <path d="M2.43233333,7.38266667 L2.995,7.38266667 L2.995,10.2806667 C2.995,10.7726667 2.913,11.1326667 2.74966667,11.3726667 C2.567,11.6246667 2.27866667,11.7506667 1.87966667,11.7506667 C1.53333334,11.7506667 1.269,11.6306667 1.091,11.3906667 C0.908333328,11.1506667 0.817,10.8206667 0.817,10.4006667 L0.817,10.2626667 L1.37933333,10.2626667 L1.37933333,10.3946667 C1.37933333,10.8866667 1.54766666,11.1326667 1.88933333,11.1326667 C2.07666666,11.1326667 2.216,11.0606667 2.30266667,10.9226667 C2.38933334,10.7846667 2.43266667,10.5626667 2.43266667,10.2566667 L2.43266667,7.38266667 L2.43233333,7.38266667 Z M3.668,7.38266667 L5.091,7.38266667 C5.91766667,7.38266667 6.336,7.82066667 6.336,8.69666667 C6.336,9.57866667 5.918,10.0226667 5.08133333,10.0226667 L4.23033333,10.0226667 L4.23033333,11.6666667 L3.668,11.6666667 L3.668,7.38266667 Z M4.23033333,7.98266667 L4.23033333,9.42266667 L5.04766667,9.42266667 C5.29766667,9.42266667 5.48033334,9.36266667 5.59566667,9.25466667 C5.71133334,9.14066667 5.769,8.95466667 5.769,8.69666667 C5.769,8.43866667 5.70633333,8.25866667 5.591,8.15066667 C5.47566667,8.03666667 5.293,7.98266667 5.04766667,7.98266667 L4.23033333,7.98266667 L4.23033333,7.98266667 Z M6.817,7.38266667 L9.293,7.38266667 L9.293,7.98266667 L7.37966667,7.98266667 L7.37966667,9.17066667 L9.17733333,9.17066667 L9.17733333,9.77066667 L7.37933333,9.77066667 L7.37933333,11.0666667 L9.37466667,11.0666667 L9.37466667,11.6666667 L6.81666667,11.6666667 L6.81666667,7.38266667 L6.817,7.38266667 Z M11.3936667,7.29866667 C11.836,7.29866667 12.1823333,7.41866667 12.437,7.66466667 C12.6823333,7.90466667 12.836,8.25866667 12.8986667,8.73866667 L12.3313333,8.73866667 C12.2833333,8.46266667 12.1773333,8.25866667 12.0236667,8.12066667 C11.865,7.98266667 11.6536667,7.91666667 11.3936667,7.91666667 C11.0716667,7.91666667 10.817,8.04866667 10.6293333,8.32466667 C10.4226667,8.61266667 10.3216667,9.01466667 10.3216667,9.54266667 C10.3216667,10.0466667 10.413,10.4366667 10.5956667,10.7066667 C10.793,10.9946667 11.1006667,11.1386667 11.519,11.1386667 C11.6823333,11.1386667 11.836,11.1146667 11.9803333,11.0666667 C12.1126327,11.0189964 12.2372765,10.9522951 12.3503333,10.8686667 L12.3503333,9.98666667 L11.442,9.98666667 L11.442,9.38666667 L12.913,9.38666667 L12.913,11.1986667 C12.7338646,11.3748672 12.5213872,11.5135724 12.288,11.6066667 C12.038,11.7026667 11.764,11.7506667 11.4563333,11.7506667 C10.9083333,11.7506667 10.485,11.5346667 10.1823333,11.1026667 C9.89866666,10.7006667 9.759,10.1786667 9.759,9.54266667 C9.759,8.90066667 9.89866667,8.37266667 10.1823333,7.95866667 C10.4803333,7.51466667 10.8843333,7.29866667 11.3936667,7.29866667 L11.3936667,7.29866667 Z" id="形状" fill="#FFFFFF"></path>
                </g>
            </g>
        </g>
    </g>
</svg>