<?xml version="1.0" encoding="UTF-8"?>
<svg width="16px" height="16px" viewBox="0 0 16 16" version="1.1" xmlns="http://www.w3.org/2000/svg" xmlns:xlink="http://www.w3.org/1999/xlink">
    <title>PNG图标</title>
    <g id="供应商管理" stroke="none" stroke-width="1" fill="none" fill-rule="evenodd">
        <g id="供应商管理-供应商列表详情-20条附件" transform="translate(-383.000000, -971.000000)" fill="#FCCC00" fill-rule="nonzero">
            <g id="编组-21备份-7" transform="translate(375.000000, 965.000000)">
                <g id="PNG图标" transform="translate(8.000000, 6.000000)">
                    <path d="M3,6 L13,6 C13.176811,6 13.3463803,6.07023789 13.4714045,6.19526215 C13.5964288,6.3202864 13.6666667,6.48985568 13.6666667,6.66666667 L13.6666667,12.3333333 C13.6666667,12.7015232 13.3681898,13 13,13 L3,13 L3,14.6666667 C3,14.7550722 3.03511895,14.8398568 3.09763107,14.9023689 C3.1601432,14.9648811 3.24492783,15 3.33333333,15 L14.6666667,15 C14.8507616,15 15,14.8507616 15,14.6666667 L15,4.82533333 L14.8423333,4.66666667 L12.8653333,4.66666667 C12.0192331,4.66666667 11.3333333,3.98076691 11.3333333,3.13466667 L11.3333333,1.13533333 L11.1986667,1 L3.33333333,1 C3.24492783,1 3.1601432,1.03511895 3.09763107,1.09763107 C3.03511895,1.1601432 3,1.24492783 3,1.33333333 L3,6 Z M2,13 L0.666666672,13 C0.298476836,13 0,12.7015232 0,12.3333333 L0,6.66666667 C0,6.48985568 0.0702378941,6.3202864 0.195262147,6.19526215 C0.320286401,6.07023789 0.489855677,6 0.666666672,6 L2,6 L2,1.33333333 C2,0.596953665 2.59695366,0 3.33333333,0 L11.615,0 L16,4.41333333 L16,14.6666667 C16,15.4030463 15.4030463,16 14.6666667,16 L3.33333333,16 C2.59695366,16 2,15.4030463 2,14.6666667 L2,13 L2,13 Z M1.44233333,7.38266667 L1.44233333,11.6666667 L2.07233333,11.6666667 L2.07233333,10.0226667 L3.02566667,10.0226667 C3.963,10.0226667 4.43133333,9.57866667 4.43133333,8.69666667 C4.43133333,7.82066667 3.963,7.38266667 3.03633333,7.38266667 L1.44233333,7.38266667 Z M2.07233333,7.98266667 L2.988,7.98266667 C3.26266667,7.98266667 3.46733333,8.03666667 3.59666667,8.15066667 C3.726,8.25866667 3.796,8.43866667 3.796,8.69666667 C3.796,8.95466667 3.73133333,9.14066667 3.602,9.25466667 C3.47266667,9.36266667 3.268,9.42266667 2.988,9.42266667 L2.07233333,9.42266667 L2.07233333,7.98266667 L2.07233333,7.98266667 Z M4.97,7.38266667 L4.97,11.6666667 L5.6,11.6666667 L5.6,8.53466667 L5.62166667,8.53466667 L7.54466667,11.6666667 L8.15866667,11.6666667 L8.15866667,7.38266667 L7.52333333,7.38266667 L7.52333333,10.4726667 L7.502,10.4726667 L5.60066667,7.38266667 L4.97066667,7.38266667 L4.97,7.38266667 Z M10.5823333,7.29866667 C10.0116667,7.29866667 9.559,7.51466667 9.225,7.95866667 C8.90733333,8.37266667 8.75133333,8.90066667 8.75133333,9.54266667 C8.75133333,10.1786667 8.90733333,10.7006667 9.225,11.1026667 C9.56433333,11.5346667 10.0383333,11.7506667 10.6523333,11.7506667 C10.9973333,11.7506667 11.3043333,11.7026667 11.5843333,11.6066667 C11.8413472,11.5161114 12.0788713,11.3776687 12.2843333,11.1986667 L12.2843333,9.38666667 L10.6366667,9.38666667 L10.6366667,9.98666667 L11.6546667,9.98666667 L11.6546667,10.8686667 C11.5260832,10.9532016 11.3865768,11.0198148 11.24,11.0666667 C11.0720587,11.1155578 10.8979095,11.1398107 10.723,11.1386667 C10.2543333,11.1386667 9.90966667,10.9946667 9.68866667,10.7066667 C9.484,10.4366667 9.382,10.0466667 9.382,9.54266667 C9.382,9.01466667 9.49466667,8.61266667 9.72633333,8.32466667 C9.93633333,8.04866667 10.222,7.91666667 10.583,7.91666667 C10.8736667,7.91666667 11.1106667,7.98266667 11.2883333,8.12066667 C11.4606667,8.25866667 11.5793333,8.46266667 11.633,8.73866667 L12.2686667,8.73866667 C12.1986667,8.25866667 12.0263333,7.90466667 11.7516667,7.66466667 C11.466,7.41866667 11.0783333,7.29866667 10.5826667,7.29866667 L10.5823333,7.29866667 Z" id="形状"></path>
                </g>
            </g>
        </g>
    </g>
</svg>