<?xml version="1.0" encoding="UTF-8"?>
<svg width="16px" height="16px" viewBox="0 0 16 16" version="1.1" xmlns="http://www.w3.org/2000/svg" xmlns:xlink="http://www.w3.org/1999/xlink">
    <title>PPT图标</title>
    <g id="供应商管理" stroke="none" stroke-width="1" fill="none" fill-rule="evenodd">
        <g id="供应商管理-供应商列表详情-20条附件" transform="translate(-383.000000, -891.000000)" fill="#F85207" fill-rule="nonzero">
            <g id="编组-21备份-5" transform="translate(375.000000, 885.000000)">
                <g id="PPT图标" transform="translate(8.000000, 6.000000)">
                    <path d="M3,6 L13,6 C13.176811,6 13.3463803,6.07023789 13.4714045,6.19526215 C13.5964288,6.3202864 13.6666667,6.48985568 13.6666667,6.66666667 L13.6666667,12.3333333 C13.6666667,12.7015232 13.3681898,13 13,13 L3,13 L3,14.6666667 C3,14.7550722 3.03511895,14.8398568 3.09763107,14.9023689 C3.1601432,14.9648811 3.24492783,15 3.33333333,15 L14.6666667,15 C14.8507616,15 15,14.8507616 15,14.6666667 L15,4.82533333 L14.8423333,4.66666667 L12.8653333,4.66666667 C12.0192331,4.66666667 11.3333333,3.98076691 11.3333333,3.13466667 L11.3333333,1.13533333 L11.1986667,1 L3.33333333,1 C3.24492783,1 3.1601432,1.03511895 3.09763107,1.09763107 C3.03511895,1.1601432 3,1.24492783 3,1.33333333 L3,6 Z M2,13 L0.666666672,13 C0.298476836,13 0,12.7015232 0,12.3333333 L0,6.66666667 C0,6.48985568 0.0702378941,6.3202864 0.195262147,6.19526215 C0.320286401,6.07023789 0.489855677,6 0.666666672,6 L2,6 L2,1.33333333 C2,0.596953665 2.59695366,0 3.33333333,0 L11.615,0 L16,4.41333333 L16,14.6666667 C16,15.4030463 15.4030463,16 14.6666667,16 L3.33333333,16 C2.59695366,16 2,15.4030463 2,14.6666667 L2,13 L2,13 Z M1.47833333,7.38266667 L1.47833333,11.6666667 L2.18033333,11.6666667 L2.18033333,10.0226667 L3.24233333,10.0226667 C4.28633333,10.0226667 4.80833333,9.57866667 4.80833333,8.69666667 C4.80833333,7.82066667 4.28633333,7.38266667 3.25433333,7.38266667 L1.47833333,7.38266667 Z M2.18033333,7.98266667 L3.20033333,7.98266667 C3.50633333,7.98266667 3.73433333,8.03666667 3.87833333,8.15066667 C4.02233333,8.25866667 4.10033333,8.43866667 4.10033333,8.69666667 C4.10033333,8.95466667 4.02833333,9.14066667 3.88433333,9.25466667 C3.74033333,9.36266667 3.51233333,9.42266667 3.20033333,9.42266667 L2.18033333,9.42266667 L2.18033333,7.98266667 L2.18033333,7.98266667 Z M5.40833333,7.38266667 L5.40833333,11.6666667 L6.11033333,11.6666667 L6.11033333,10.0226667 L7.17233333,10.0226667 C8.21633333,10.0226667 8.73833333,9.57866667 8.73833333,8.69666667 C8.73833333,7.82066667 8.21633333,7.38266667 7.18433333,7.38266667 L5.40833333,7.38266667 Z M6.11033333,7.98266667 L7.13033333,7.98266667 C7.43633333,7.98266667 7.66433333,8.03666667 7.80833333,8.15066667 C7.95233333,8.25866667 8.03033333,8.43866667 8.03033333,8.69666667 C8.03033333,8.95466667 7.95833333,9.14066667 7.81433333,9.25466667 C7.67033333,9.36266667 7.44233333,9.42266667 7.13033333,9.42266667 L6.11033333,9.42266667 L6.11033333,7.98266667 L6.11033333,7.98266667 Z M9.00833333,7.38266667 L9.00833333,7.98266667 L10.4123333,7.98266667 L10.4123333,11.6666667 L11.1143333,11.6666667 L11.1143333,7.98266667 L12.5183333,7.98266667 L12.5183333,7.38266667 L9.00833333,7.38266667 Z" id="形状"></path>
                </g>
            </g>
        </g>
    </g>
</svg>