<?xml version="1.0" encoding="UTF-8"?>
<svg width="16px" height="16px" viewBox="0 0 16 16" version="1.1" xmlns="http://www.w3.org/2000/svg" xmlns:xlink="http://www.w3.org/1999/xlink">
    <title>XLS图标</title>
    <g id="供应商管理" stroke="none" stroke-width="1" fill="none" fill-rule="evenodd">
        <g id="供应商管理-供应商列表详情-20条附件" transform="translate(-383.000000, -771.000000)" fill="#77D425" fill-rule="nonzero">
            <g id="编组-21备份-2" transform="translate(375.000000, 765.000000)">
                <g id="XLS图标" transform="translate(8.000000, 6.000000)">
                    <path d="M11.615,0 L16,4.41333333 L16,14.6666667 C16,15.4030463 15.4030463,16 14.6666667,16 L3.33333333,16 C2.59695366,16 2,15.4030463 2,14.6666667 L2,13 L0.666666672,13 C0.298476836,13 0,12.7015232 0,12.3333333 L0,6.66666667 C0,6.48985568 0.0702378941,6.3202864 0.195262147,6.19526215 C0.320286401,6.07023789 0.489855677,6 0.666666672,6 L2,6 L2,1.33333333 C2,0.596953665 2.59695366,0 3.33333333,0 L11.615,0 Z M11.1986667,1 L3.33333333,1 C3.24492783,1 3.1601432,1.03511895 3.09763107,1.09763107 C3.03511895,1.1601432 3,1.24492783 3,1.33333333 L3,6 L13,6 C13.176811,6 13.3463803,6.07023789 13.4714045,6.19526215 C13.5964288,6.3202864 13.6666667,6.48985568 13.6666667,6.66666667 L13.6666667,12.3333333 C13.6666667,12.7015232 13.3681898,13 13,13 L3,13 L3,14.6666667 C3,14.7550722 3.03511895,14.8398568 3.09763107,14.9023689 C3.1601432,14.9648811 3.24492783,15 3.33333333,15 L14.6666667,15 C14.8507616,15 15,14.8507616 15,14.6666667 L15,4.82533333 L14.8423333,4.66666667 L12.8653333,4.66666667 C12.0192331,4.66666667 11.3333333,3.98076691 11.3333333,3.13466667 L11.3333333,1.13566667 L11.1986667,1 Z M10.3616667,7.29866667 C9.89966667,7.29866667 9.52166667,7.40066667 9.22166667,7.61066667 C8.89766667,7.82666667 8.74166667,8.12666667 8.74166667,8.50466667 C8.74166667,8.88266667 8.90366667,9.17066667 9.23366667,9.36866667 C9.35966667,9.44066667 9.68966667,9.56066667 10.2176667,9.72866667 C10.6916667,9.87266667 10.9676667,9.96866667 11.0516667,10.0106667 C11.3156667,10.1426667 11.4536667,10.3226667 11.4536667,10.5506667 C11.4536667,10.7306667 11.3576667,10.8686667 11.1776667,10.9766667 C10.9976667,11.0786667 10.7456667,11.1326667 10.4336667,11.1326667 C10.0796667,11.1326667 9.82166667,11.0666667 9.65366667,10.9466667 C9.46766667,10.8086667 9.35366667,10.5746667 9.30566667,10.2506667 L8.60966667,10.2506667 C8.63966667,10.7966667 8.83766667,11.1926667 9.19766667,11.4446667 C9.49166667,11.6486667 9.90566667,11.7506667 10.4336667,11.7506667 C10.9796667,11.7506667 11.4056667,11.6366667 11.7056667,11.4206667 C12.0056667,11.1986667 12.1556667,10.8926667 12.1556667,10.5086667 C12.1556667,10.1126667 11.9696667,9.80666667 11.5976667,9.58466667 C11.4296667,9.48866667 11.0576667,9.34466667 10.4756667,9.16466667 C10.0796667,9.03866667 9.83366667,8.94866667 9.74366667,8.90066667 C9.53966667,8.79266667 9.44366667,8.64266667 9.44366667,8.46266667 C9.44366667,8.25866667 9.52766667,8.10866667 9.70766667,8.01866667 C9.85166667,7.94066667 10.0556667,7.90466667 10.3256667,7.90466667 C10.6376667,7.90466667 10.8776667,7.95866667 11.0336667,8.07866667 C11.1896667,8.19266667 11.3036667,8.38466667 11.3636667,8.64866667 L12.0596667,8.64866667 C12.0176667,8.18066667 11.8436667,7.83266667 11.5436667,7.61066667 C11.2616667,7.40066667 10.8656667,7.29866667 10.3616667,7.29866667 L10.3616667,7.29866667 Z M2.42966667,7.38266667 L1.57166667,7.38266667 L3.00566667,9.45266667 L1.47566667,11.6666667 L2.33366667,11.6666667 L3.43766667,10.0106667 L4.54166667,11.6666667 L5.39966667,11.6666667 L3.85766667,9.45266667 L5.30366667,7.38266667 L4.44566667,7.38266667 L3.43766667,8.89466667 L2.42966667,7.38266667 L2.42966667,7.38266667 Z M6.45166667,7.38266667 L5.75566667,7.38266667 L5.75566667,11.6666667 L8.43433333,11.6666667 L8.43433333,11.0666667 L6.45166667,11.0666667 L6.45166667,7.38266667 Z" id="形状"></path>
                </g>
            </g>
        </g>
    </g>
</svg>